<?xml version="1.0" standalone="no"?>
<svg width="100%" height="100%" viewBox="0.000000 0.000000 26.000100 20.800080" xmlns="http://www.w3.org/2000/svg" version="1.1">
  <rect x="5.200020000000002418e-02" y="5.200020000000002418e-02" width="2.589609960000001010e+01" height="2.059207920000000769e+01" fill="white" stroke="black" stroke-width="1.040004000000000484e-01"/>
  <g transform="translate(10.400040, 13.000050)">
    <g>
      <polyline fill="none" stroke="black" stroke-width="1.733340000000000575e-02" points="2.600010 -2.135318 2.600010 -2.135318 2.600010 -2.135318 2.600010 -2.135318 2.600010 -2.135318 2.600010 -2.135318 2.600010 -2.135318 2.600010 -2.135318 2.600010 -2.135318 2.491676 -2.135318 2.383343 -2.135318 2.275009 -2.135318 2.166675 -2.135318 2.058341 -2.135318 1.950008 -2.135318 1.841674 -2.135318 1.733340 -2.135318 1.625006 -2.135318 1.516673 -2.135318 1.408339 -2.135318 1.300005 -2.135318 1.191671 -2.135318 1.083338 -2.135318 0.975004 -2.135318 0.866670 -2.135318 0.758336 -2.135318 0.650003 -2.135318 0.541669 -2.135318 0.433335 -2.135318 0.325001 -2.135318 0.216668 -2.135318 0.108334 -2.135318 0.000000 -2.135318 0.000000 -2.135318 0.000000 -2.135318 0.000000 -2.135318 0.000000 -2.135318 0.000000 -2.135318 0.000000 -2.135318 0.000000 -2.135318 0.000000 -2.135318 "/>
      <polyline fill="none" stroke="black" stroke-width="1.733340000000000575e-02" points="2.600010 -2.135318 2.600010 -2.135318 2.600010 -2.135318 2.600010 -2.135318 2.600010 -2.135318 2.600010 -2.135318 2.600010 -2.135318 2.600010 -2.135318 2.600010 -2.135318 2.491676 -2.135318 2.383343 -2.135318 2.275009 -2.135318 2.166675 -2.135318 2.058341 -2.135318 1.950008 -2.135318 1.841674 -2.135318 1.733340 -2.135318 1.625006 -2.135318 1.516673 -2.135318 1.408339 -2.135318 1.300005 -2.135318 1.191671 -2.135318 1.083338 -2.135318 0.975004 -2.135318 0.866670 -2.135318 0.758336 -2.135318 0.650003 -2.135318 0.541669 -2.135318 0.433335 -2.135318 0.325001 -2.135318 0.216668 -2.135318 0.108334 -2.135318 0.000000 -2.135318 0.000000 -2.135318 0.000000 -2.135318 0.000000 -2.135318 0.000000 -2.135318 0.000000 -2.135318 0.000000 -2.135318 0.000000 -2.135318 0.000000 -2.135318 "/>
      <polyline fill="none" stroke="black" stroke-width="1.733340000000000575e-02" points="2.600010 -1.638035 2.600010 -1.638035 2.600010 -1.638035 2.600010 -1.638035 2.600010 -1.638035 2.600010 -1.638035 2.600010 -1.638035 2.600010 -1.638035 2.600010 -1.638035 2.491676 -1.638035 2.383343 -1.638035 2.275009 -1.638035 2.166675 -1.638035 2.058341 -1.638035 1.950008 -1.638035 1.841674 -1.638035 1.733340 -1.638035 1.625006 -1.638035 1.516673 -1.638035 1.408339 -1.638035 1.300005 -1.638035 1.191671 -1.638035 1.083338 -1.638035 0.975004 -1.638035 0.866670 -1.638035 0.758336 -1.638035 0.650003 -1.638035 0.541669 -1.638035 0.433335 -1.638035 0.325001 -1.638035 0.216668 -1.638035 0.108334 -1.638035 0.000000 -1.638035 0.000000 -1.638035 0.000000 -1.638035 0.000000 -1.638035 0.000000 -1.638035 0.000000 -1.638035 0.000000 -1.638035 0.000000 -1.638035 0.000000 -1.638035 "/>
      <polyline fill="none" stroke="black" stroke-width="1.733340000000000575e-02" points="2.600010 -1.638035 2.600010 -1.638035 2.600010 -1.638035 2.600010 -1.638035 2.600010 -1.638035 2.600010 -1.638035 2.600010 -1.638035 2.600010 -1.638035 2.600010 -1.638035 2.491676 -1.638035 2.383343 -1.638035 2.275009 -1.638035 2.166675 -1.638035 2.058341 -1.638035 1.950008 -1.638035 1.841674 -1.638035 1.733340 -1.638035 1.625006 -1.638035 1.516673 -1.638035 1.408339 -1.638035 1.300005 -1.638035 1.191671 -1.638035 1.083338 -1.638035 0.975004 -1.638035 0.866670 -1.638035 0.758336 -1.638035 0.650003 -1.638035 0.541669 -1.638035 0.433335 -1.638035 0.325001 -1.638035 0.216668 -1.638035 0.108334 -1.638035 0.000000 -1.638035 0.000000 -1.638035 0.000000 -1.638035 0.000000 -1.638035 0.000000 -1.638035 0.000000 -1.638035 0.000000 -1.638035 0.000000 -1.638035 0.000000 -1.638035 "/>
      <polyline fill="none" stroke="black" stroke-width="1.733340000000000575e-02" points="2.600010 -1.638035 2.600010 -1.638035 2.600010 -1.638035 2.600010 -1.638035 2.600010 -1.638035 2.600010 -1.638035 2.600010 -1.638035 2.600010 -1.638035 2.600010 -1.638035 2.491676 -1.638035 2.383343 -1.638035 2.275009 -1.638035 2.166675 -1.638035 2.058341 -1.638035 1.950008 -1.638035 1.841674 -1.638035 1.733340 -1.638035 1.625006 -1.638035 1.516673 -1.638035 1.408339 -1.638035 1.300005 -1.638035 1.191671 -1.638035 1.083338 -1.638035 0.975004 -1.638035 0.866670 -1.638035 0.758336 -1.638035 0.650003 -1.638035 0.541669 -1.638035 0.433335 -1.638035 0.325001 -1.638035 0.216668 -1.638035 0.108334 -1.638035 0.000000 -1.638035 0.000000 -1.638035 0.000000 -1.638035 0.000000 -1.638035 0.000000 -1.638035 0.000000 -1.638035 0.000000 -1.638035 0.000000 -1.638035 0.000000 -1.638035 "/>
      <polyline fill="none" stroke="black" stroke-width="1.733340000000000575e-02" points="2.600010 -2.135318 2.600010 -2.135318 2.600010 -2.135318 2.600010 -2.135318 2.600010 -2.135318 2.600010 -2.135318 2.600010 -2.135318 2.600010 -2.135318 2.600010 -2.135318 2.491676 -2.135318 2.383343 -2.135318 2.275009 -2.135318 2.166675 -2.135318 2.058341 -2.135318 1.950008 -2.135318 1.841674 -2.135318 1.733340 -2.135318 1.625006 -2.135318 1.516673 -2.135318 1.408339 -2.135318 1.300005 -2.135318 1.191671 -2.135318 1.083338 -2.135318 0.975004 -2.135318 0.866670 -2.135318 0.758336 -2.135318 0.650003 -2.135318 0.541669 -2.135318 0.433335 -2.135318 0.325001 -2.135318 0.216668 -2.135318 0.108334 -2.135318 0.000000 -2.135318 0.000000 -2.135318 0.000000 -2.135318 0.000000 -2.135318 0.000000 -2.135318 0.000000 -2.135318 0.000000 -2.135318 0.000000 -2.135318 0.000000 -2.135318 "/>
      <polyline fill="none" stroke="black" stroke-width="1.733340000000000575e-02" points="2.600010 -2.135318 2.600010 -2.135318 2.600010 -2.135318 2.600010 -2.135318 2.600010 -2.135318 2.600010 -2.135318 2.600010 -2.135318 2.600010 -2.135318 2.600010 -2.135318 2.491676 -2.135318 2.383343 -2.135318 2.275009 -2.135318 2.166675 -2.135318 2.058341 -2.135318 1.950008 -2.135318 1.841674 -2.135318 1.733340 -2.135318 1.625006 -2.135318 1.516673 -2.135318 1.408339 -2.135318 1.300005 -2.135318 1.191671 -2.135318 1.083338 -2.135318 0.975004 -2.135318 0.866670 -2.135318 0.758336 -2.135318 0.650003 -2.135318 0.541669 -2.135318 0.433335 -2.135318 0.325001 -2.135318 0.216668 -2.135318 0.108334 -2.135318 0.000000 -2.135318 0.000000 -2.135318 0.000000 -2.135318 0.000000 -2.135318 0.000000 -2.135318 0.000000 -2.135318 0.000000 -2.135318 0.000000 -2.135318 0.000000 -2.135318 "/>
      <polyline fill="none" stroke="black" stroke-width="1.733340000000000575e-02" points="2.600010 -2.135318 2.600010 -2.135318 2.600010 -2.135318 2.600010 -2.135318 2.600010 -2.135318 2.600010 -2.135318 2.600010 -2.135318 2.600010 -2.135318 2.600010 -2.135318 2.600010 -2.072888 2.600010 -2.010439 2.600010 -1.947950 2.600010 -1.885340 2.600010 -1.822425 2.600010 -1.759179 2.600010 -1.696027 2.600010 -1.638035 2.600010 -1.638035 2.600010 -1.638035 2.600010 -1.638035 2.600010 -1.638035 2.600010 -1.638035 2.600010 -1.638035 2.600010 -1.638035 2.600010 -1.638035 2.600010 -1.638035 2.600010 -1.638035 2.600010 -1.638035 2.600010 -1.638035 2.600010 -1.638035 2.600010 -1.638035 2.600010 -1.638035 2.600010 -1.638035 2.600010 -1.696027 2.600010 -1.759179 2.600010 -1.822425 2.600010 -1.885340 2.600010 -1.947950 2.600010 -2.010439 2.600010 -2.072888 2.600010 -2.135318 2.600010 -2.135318 2.600010 -2.135318 2.600010 -2.135318 2.600010 -2.135318 2.600010 -2.135318 2.600010 -2.135318 2.600010 -2.135318 2.600010 -2.135318 "/>
      <polyline fill="none" stroke="black" stroke-width="1.733340000000000575e-02" points="2.600010 -2.135318 2.600010 -2.135318 2.600010 -2.135318 2.600010 -2.135318 2.600010 -2.135318 2.600010 -2.135318 2.600010 -2.135318 2.600010 -2.135318 2.600010 -2.135318 2.600010 -2.072554 2.600010 -2.009828 2.600010 -1.947101 2.600010 -1.884372 2.600010 -1.821649 2.600010 -1.758958 2.600010 -1.696401 2.600010 -1.638035 2.600010 -1.638035 2.600010 -1.638035 2.600010 -1.638035 2.600010 -1.638035 2.600010 -1.638035 2.600010 -1.638035 2.600010 -1.638035 2.600010 -1.638035 2.600010 -1.638035 2.600010 -1.638035 2.600010 -1.638035 2.600010 -1.638035 2.600010 -1.638035 2.600010 -1.638035 2.600010 -1.638035 2.600010 -1.638035 2.600010 -1.649683 2.600010 -1.664480 2.600010 -1.679934 2.600010 -1.695653 2.600010 -1.727441 2.600010 -1.759401 2.600010 -1.823200 2.600010 -1.886307 2.600010 -1.948799 2.600010 -2.011049 2.600010 -2.073223 2.600010 -2.135318 2.600010 -2.135318 2.600010 -2.135318 2.600010 -2.135318 2.600010 -2.135318 2.600010 -2.135318 2.600010 -2.135318 2.600010 -2.135318 2.600010 -2.135318 "/>
      <polyline fill="none" stroke="black" stroke-width="1.733340000000000575e-02" points="1.733340 -2.135318 1.733340 -2.135318 1.733340 -2.135318 1.733340 -2.135318 1.733340 -2.135318 1.733340 -2.135318 1.733340 -2.135318 1.733340 -2.135318 1.733340 -2.135318 1.733340 -2.072554 1.733340 -2.009828 1.733340 -1.947101 1.733340 -1.884372 1.733340 -1.821649 1.733340 -1.758958 1.733340 -1.696401 1.733340 -1.638035 1.733340 -1.638035 1.733340 -1.638035 1.733340 -1.638035 1.733340 -1.638035 1.733340 -1.638035 1.733340 -1.638035 1.733340 -1.638035 1.733340 -1.638035 1.733340 -1.638035 1.733340 -1.638035 1.733340 -1.638035 1.733340 -1.638035 1.733340 -1.638035 1.733340 -1.638035 1.733340 -1.638035 1.733340 -1.638035 1.733340 -1.649683 1.733340 -1.664480 1.733340 -1.679934 1.733340 -1.695653 1.733340 -1.727441 1.733340 -1.759401 1.733340 -1.823200 1.733340 -1.886307 1.733340 -1.948799 1.733340 -2.011049 1.733340 -2.073223 1.733340 -2.135318 1.733340 -2.135318 1.733340 -2.135318 1.733340 -2.135318 1.733340 -2.135318 1.733340 -2.135318 1.733340 -2.135318 1.733340 -2.135318 1.733340 -2.135318 "/>
      <polyline fill="none" stroke="black" stroke-width="1.733340000000000575e-02" points="0.866670 -2.135318 0.866670 -2.135318 0.866670 -2.135318 0.866670 -2.135318 0.866670 -2.135318 0.866670 -2.135318 0.866670 -2.135318 0.866670 -2.135318 0.866670 -2.135318 0.866670 -2.072554 0.866670 -2.009828 0.866670 -1.947101 0.866670 -1.884372 0.866670 -1.821649 0.866670 -1.758958 0.866670 -1.696401 0.866670 -1.638035 0.866670 -1.638035 0.866670 -1.638035 0.866670 -1.638035 0.866670 -1.638035 0.866670 -1.638035 0.866670 -1.638035 0.866670 -1.638035 0.866670 -1.638035 0.866670 -1.638035 0.866670 -1.638035 0.866670 -1.638035 0.866670 -1.638035 0.866670 -1.638035 0.866670 -1.638035 0.866670 -1.638035 0.866670 -1.638035 0.866670 -1.649683 0.866670 -1.664480 0.866670 -1.679934 0.866670 -1.695653 0.866670 -1.727441 0.866670 -1.759401 0.866670 -1.823200 0.866670 -1.886307 0.866670 -1.948799 0.866670 -2.011049 0.866670 -2.073223 0.866670 -2.135318 0.866670 -2.135318 0.866670 -2.135318 0.866670 -2.135318 0.866670 -2.135318 0.866670 -2.135318 0.866670 -2.135318 0.866670 -2.135318 0.866670 -2.135318 "/>
      <polyline fill="none" stroke="black" stroke-width="1.733340000000000575e-02" points="0.000000 -2.135318 0.000000 -2.135318 0.000000 -2.135318 0.000000 -2.135318 0.000000 -2.135318 0.000000 -2.135318 0.000000 -2.135318 0.000000 -2.135318 0.000000 -2.135318 0.000000 -2.072554 0.000000 -2.009828 0.000000 -1.947101 0.000000 -1.884372 0.000000 -1.821649 0.000000 -1.758958 0.000000 -1.696401 0.000000 -1.638035 0.000000 -1.638035 0.000000 -1.638035 0.000000 -1.638035 0.000000 -1.638035 0.000000 -1.638035 0.000000 -1.638035 0.000000 -1.638035 0.000000 -1.638035 0.000000 -1.638035 0.000000 -1.638035 0.000000 -1.638035 0.000000 -1.638035 0.000000 -1.638035 0.000000 -1.638035 0.000000 -1.638035 0.000000 -1.638035 0.000000 -1.649683 0.000000 -1.664480 0.000000 -1.679934 0.000000 -1.695653 0.000000 -1.727441 0.000000 -1.759401 0.000000 -1.823200 0.000000 -1.886307 0.000000 -1.948799 0.000000 -2.011049 0.000000 -2.073223 0.000000 -2.135318 0.000000 -2.135318 0.000000 -2.135318 0.000000 -2.135318 0.000000 -2.135318 0.000000 -2.135318 0.000000 -2.135318 0.000000 -2.135318 0.000000 -2.135318 "/>
      <polyline fill="none" stroke="black" stroke-width="1.733340000000000575e-02" points="0.000000 -2.135318 0.000000 -2.135318 0.000000 -2.135318 0.000000 -2.135318 0.000000 -2.135318 0.000000 -2.135318 0.000000 -2.135318 0.000000 -2.135318 0.000000 -2.135318 0.000000 -2.072888 0.000000 -2.010439 0.000000 -1.947950 0.000000 -1.885340 0.000000 -1.822425 0.000000 -1.759179 0.000000 -1.696027 0.000000 -1.638035 0.000000 -1.638035 0.000000 -1.638035 0.000000 -1.638035 0.000000 -1.638035 0.000000 -1.638035 0.000000 -1.638035 0.000000 -1.638035 0.000000 -1.638035 0.000000 -1.638035 0.000000 -1.638035 0.000000 -1.638035 0.000000 -1.638035 0.000000 -1.638035 0.000000 -1.638035 0.000000 -1.638035 0.000000 -1.638035 0.000000 -1.696027 0.000000 -1.759179 0.000000 -1.822425 0.000000 -1.885340 0.000000 -1.947950 0.000000 -2.010439 0.000000 -2.072888 0.000000 -2.135318 0.000000 -2.135318 0.000000 -2.135318 0.000000 -2.135318 0.000000 -2.135318 0.000000 -2.135318 0.000000 -2.135318 0.000000 -2.135318 0.000000 -2.135318 "/>
    </g>
  </g>
  <g transform="translate(10.400040, 13.000050)">
    <g>
      <polyline fill="none" stroke="black" stroke-width="1.733340000000000575e-02" points="2.600010 -2.135318 2.600010 -2.135318 2.600010 -2.135318 2.600010 -2.135318 2.600010 -2.135318 2.600010 -2.135318 2.600010 -2.135318 2.600010 -2.135318 2.600010 -2.135318 2.708344 -2.135318 2.816678 -2.135318 2.925011 -2.135318 3.033345 -2.135318 3.141679 -2.135318 3.250013 -2.135318 3.358346 -2.135318 3.466680 -2.135318 3.575014 -2.135318 3.683348 -2.135318 3.791681 -2.135318 3.900015 -2.135318 4.008349 -2.135318 4.116683 -2.135318 4.225016 -2.135318 4.333350 -2.135318 4.441684 -2.135318 4.550018 -2.135318 4.658351 -2.135318 4.766685 -2.135318 4.875019 -2.135318 4.983353 -2.135318 5.091686 -2.135318 5.200020 -2.135318 5.200020 -2.135318 5.200020 -2.135318 5.200020 -2.135318 5.200020 -2.135318 5.200020 -2.135318 5.200020 -2.135318 5.200020 -2.135318 5.200020 -2.135318 "/>
      <polyline fill="none" stroke="black" stroke-width="1.733340000000000575e-02" points="2.600010 -2.135318 2.600010 -2.135318 2.600010 -2.135318 2.600010 -2.135318 2.600010 -2.135318 2.600010 -2.135318 2.600010 -2.135318 2.600010 -2.135318 2.600010 -2.135318 2.708344 -2.135318 2.816678 -2.135318 2.925011 -2.135318 3.033345 -2.135318 3.141679 -2.135318 3.250013 -2.135318 3.358346 -2.135318 3.466680 -2.135318 3.575014 -2.135318 3.683348 -2.135318 3.791681 -2.135318 3.900015 -2.135318 4.008349 -2.135318 4.116683 -2.135318 4.225016 -2.135318 4.333350 -2.135318 4.441684 -2.135318 4.550018 -2.135318 4.658351 -2.135318 4.766685 -2.135318 4.875019 -2.135318 4.983353 -2.135318 5.091686 -2.135318 5.200020 -2.135318 5.200020 -2.135318 5.200020 -2.135318 5.200020 -2.135318 5.200020 -2.135318 5.200020 -2.135318 5.200020 -2.135318 5.200020 -2.135318 5.200020 -2.135318 "/>
      <polyline fill="none" stroke="black" stroke-width="1.733340000000000575e-02" points="2.600010 -1.638035 2.600010 -1.638035 2.600010 -1.638035 2.600010 -1.638035 2.600010 -1.638035 2.600010 -1.638035 2.600010 -1.638035 2.600010 -1.638035 2.600010 -1.638035 2.708344 -1.638035 2.816678 -1.638035 2.925011 -1.638035 3.033345 -1.638035 3.141679 -1.638035 3.250013 -1.638035 3.358346 -1.638035 3.466680 -1.638035 3.575014 -1.638035 3.683348 -1.638035 3.791681 -1.638035 3.900015 -1.638035 4.008349 -1.638035 4.116683 -1.638035 4.225016 -1.638035 4.333350 -1.638035 4.441684 -1.638035 4.550018 -1.638035 4.658351 -1.638035 4.766685 -1.638035 4.875019 -1.638035 4.983353 -1.638035 5.091686 -1.638035 5.200020 -1.638035 5.200020 -1.638035 5.200020 -1.638035 5.200020 -1.638035 5.200020 -1.638035 5.200020 -1.638035 5.200020 -1.638035 5.200020 -1.638035 5.200020 -1.638035 "/>
      <polyline fill="none" stroke="black" stroke-width="1.733340000000000575e-02" points="2.600010 -1.638035 2.600010 -1.638035 2.600010 -1.638035 2.600010 -1.638035 2.600010 -1.638035 2.600010 -1.638035 2.600010 -1.638035 2.600010 -1.638035 2.600010 -1.638035 2.708344 -1.638035 2.816678 -1.638035 2.925011 -1.638035 3.033345 -1.638035 3.141679 -1.638035 3.250013 -1.638035 3.358346 -1.638035 3.466680 -1.638035 3.575014 -1.638035 3.683348 -1.638035 3.791681 -1.638035 3.900015 -1.638035 4.008349 -1.638035 4.116683 -1.638035 4.225016 -1.638035 4.333350 -1.638035 4.441684 -1.638035 4.550018 -1.638035 4.658351 -1.638035 4.766685 -1.638035 4.875019 -1.638035 4.983353 -1.638035 5.091686 -1.638035 5.200020 -1.638035 5.200020 -1.638035 5.200020 -1.638035 5.200020 -1.638035 5.200020 -1.638035 5.200020 -1.638035 5.200020 -1.638035 5.200020 -1.638035 5.200020 -1.638035 "/>
      <polyline fill="none" stroke="black" stroke-width="1.733340000000000575e-02" points="2.600010 -1.638035 2.600010 -1.638035 2.600010 -1.638035 2.600010 -1.638035 2.600010 -1.638035 2.600010 -1.638035 2.600010 -1.638035 2.600010 -1.638035 2.600010 -1.638035 2.708344 -1.638035 2.816678 -1.638035 2.925011 -1.638035 3.033345 -1.638035 3.141679 -1.638035 3.250013 -1.638035 3.358346 -1.638035 3.466680 -1.638035 3.575014 -1.638035 3.683348 -1.638035 3.791681 -1.638035 3.900015 -1.638035 4.008349 -1.638035 4.116683 -1.638035 4.225016 -1.638035 4.333350 -1.638035 4.441684 -1.638035 4.550018 -1.638035 4.658351 -1.638035 4.766685 -1.638035 4.875019 -1.638035 4.983353 -1.638035 5.091686 -1.638035 5.200020 -1.638035 5.200020 -1.638035 5.200020 -1.638035 5.200020 -1.638035 5.200020 -1.638035 5.200020 -1.638035 5.200020 -1.638035 5.200020 -1.638035 5.200020 -1.638035 "/>
      <polyline fill="none" stroke="black" stroke-width="1.733340000000000575e-02" points="2.600010 -2.135318 2.600010 -2.135318 2.600010 -2.135318 2.600010 -2.135318 2.600010 -2.135318 2.600010 -2.135318 2.600010 -2.135318 2.600010 -2.135318 2.600010 -2.135318 2.708344 -2.135318 2.816678 -2.135318 2.925011 -2.135318 3.033345 -2.135318 3.141679 -2.135318 3.250013 -2.135318 3.358346 -2.135318 3.466680 -2.135318 3.575014 -2.135318 3.683348 -2.135318 3.791681 -2.135318 3.900015 -2.135318 4.008349 -2.135318 4.116683 -2.135318 4.225016 -2.135318 4.333350 -2.135318 4.441684 -2.135318 4.550018 -2.135318 4.658351 -2.135318 4.766685 -2.135318 4.875019 -2.135318 4.983353 -2.135318 5.091686 -2.135318 5.200020 -2.135318 5.200020 -2.135318 5.200020 -2.135318 5.200020 -2.135318 5.200020 -2.135318 5.200020 -2.135318 5.200020 -2.135318 5.200020 -2.135318 5.200020 -2.135318 "/>
      <polyline fill="none" stroke="black" stroke-width="1.733340000000000575e-02" points="2.600010 -2.135318 2.600010 -2.135318 2.600010 -2.135318 2.600010 -2.135318 2.600010 -2.135318 2.600010 -2.135318 2.600010 -2.135318 2.600010 -2.135318 2.600010 -2.135318 2.708344 -2.135318 2.816678 -2.135318 2.925011 -2.135318 3.033345 -2.135318 3.141679 -2.135318 3.250013 -2.135318 3.358346 -2.135318 3.466680 -2.135318 3.575014 -2.135318 3.683348 -2.135318 3.791681 -2.135318 3.900015 -2.135318 4.008349 -2.135318 4.116683 -2.135318 4.225016 -2.135318 4.333350 -2.135318 4.441684 -2.135318 4.550018 -2.135318 4.658351 -2.135318 4.766685 -2.135318 4.875019 -2.135318 4.983353 -2.135318 5.091686 -2.135318 5.200020 -2.135318 5.200020 -2.135318 5.200020 -2.135318 5.200020 -2.135318 5.200020 -2.135318 5.200020 -2.135318 5.200020 -2.135318 5.200020 -2.135318 5.200020 -2.135318 "/>
      <polyline fill="none" stroke="black" stroke-width="1.733340000000000575e-02" points="2.600010 -2.135318 2.600010 -2.135318 2.600010 -2.135318 2.600010 -2.135318 2.600010 -2.135318 2.600010 -2.135318 2.600010 -2.135318 2.600010 -2.135318 2.600010 -2.135318 2.600010 -2.072888 2.600010 -2.010439 2.600010 -1.947950 2.600010 -1.885340 2.600010 -1.822425 2.600010 -1.759179 2.600010 -1.696027 2.600010 -1.638035 2.600010 -1.638035 2.600010 -1.638035 2.600010 -1.638035 2.600010 -1.638035 2.600010 -1.638035 2.600010 -1.638035 2.600010 -1.638035 2.600010 -1.638035 2.600010 -1.638035 2.600010 -1.638035 2.600010 -1.638035 2.600010 -1.638035 2.600010 -1.638035 2.600010 -1.638035 2.600010 -1.638035 2.600010 -1.638035 2.600010 -1.696027 2.600010 -1.759179 2.600010 -1.822425 2.600010 -1.885340 2.600010 -1.947950 2.600010 -2.010439 2.600010 -2.072888 2.600010 -2.135318 2.600010 -2.135318 2.600010 -2.135318 2.600010 -2.135318 2.600010 -2.135318 2.600010 -2.135318 2.600010 -2.135318 2.600010 -2.135318 2.600010 -2.135318 "/>
      <polyline fill="none" stroke="black" stroke-width="1.733340000000000575e-02" points="2.600010 -2.135318 2.600010 -2.135318 2.600010 -2.135318 2.600010 -2.135318 2.600010 -2.135318 2.600010 -2.135318 2.600010 -2.135318 2.600010 -2.135318 2.600010 -2.135318 2.600010 -2.072554 2.600010 -2.009828 2.600010 -1.947101 2.600010 -1.884372 2.600010 -1.821649 2.600010 -1.758958 2.600010 -1.696401 2.600010 -1.638035 2.600010 -1.638035 2.600010 -1.638035 2.600010 -1.638035 2.600010 -1.638035 2.600010 -1.638035 2.600010 -1.638035 2.600010 -1.638035 2.600010 -1.638035 2.600010 -1.638035 2.600010 -1.638035 2.600010 -1.638035 2.600010 -1.638035 2.600010 -1.638035 2.600010 -1.638035 2.600010 -1.638035 2.600010 -1.638035 2.600010 -1.649683 2.600010 -1.664480 2.600010 -1.679934 2.600010 -1.695653 2.600010 -1.727441 2.600010 -1.759401 2.600010 -1.823200 2.600010 -1.886307 2.600010 -1.948799 2.600010 -2.011049 2.600010 -2.073223 2.600010 -2.135318 2.600010 -2.135318 2.600010 -2.135318 2.600010 -2.135318 2.600010 -2.135318 2.600010 -2.135318 2.600010 -2.135318 2.600010 -2.135318 2.600010 -2.135318 "/>
      <polyline fill="none" stroke="black" stroke-width="1.733340000000000575e-02" points="3.466680 -2.135318 3.466680 -2.135318 3.466680 -2.135318 3.466680 -2.135318 3.466680 -2.135318 3.466680 -2.135318 3.466680 -2.135318 3.466680 -2.135318 3.466680 -2.135318 3.466680 -2.072554 3.466680 -2.009828 3.466680 -1.947101 3.466680 -1.884372 3.466680 -1.821649 3.466680 -1.758958 3.466680 -1.696401 3.466680 -1.638035 3.466680 -1.638035 3.466680 -1.638035 3.466680 -1.638035 3.466680 -1.638035 3.466680 -1.638035 3.466680 -1.638035 3.466680 -1.638035 3.466680 -1.638035 3.466680 -1.638035 3.466680 -1.638035 3.466680 -1.638035 3.466680 -1.638035 3.466680 -1.638035 3.466680 -1.638035 3.466680 -1.638035 3.466680 -1.638035 3.466680 -1.649683 3.466680 -1.664480 3.466680 -1.679934 3.466680 -1.695653 3.466680 -1.727441 3.466680 -1.759401 3.466680 -1.823200 3.466680 -1.886307 3.466680 -1.948799 3.466680 -2.011049 3.466680 -2.073223 3.466680 -2.135318 3.466680 -2.135318 3.466680 -2.135318 3.466680 -2.135318 3.466680 -2.135318 3.466680 -2.135318 3.466680 -2.135318 3.466680 -2.135318 3.466680 -2.135318 "/>
      <polyline fill="none" stroke="black" stroke-width="1.733340000000000575e-02" points="4.333350 -2.135318 4.333350 -2.135318 4.333350 -2.135318 4.333350 -2.135318 4.333350 -2.135318 4.333350 -2.135318 4.333350 -2.135318 4.333350 -2.135318 4.333350 -2.135318 4.333350 -2.072554 4.333350 -2.009828 4.333350 -1.947101 4.333350 -1.884372 4.333350 -1.821649 4.333350 -1.758958 4.333350 -1.696401 4.333350 -1.638035 4.333350 -1.638035 4.333350 -1.638035 4.333350 -1.638035 4.333350 -1.638035 4.333350 -1.638035 4.333350 -1.638035 4.333350 -1.638035 4.333350 -1.638035 4.333350 -1.638035 4.333350 -1.638035 4.333350 -1.638035 4.333350 -1.638035 4.333350 -1.638035 4.333350 -1.638035 4.333350 -1.638035 4.333350 -1.638035 4.333350 -1.649683 4.333350 -1.664480 4.333350 -1.679934 4.333350 -1.695653 4.333350 -1.727441 4.333350 -1.759401 4.333350 -1.823200 4.333350 -1.886307 4.333350 -1.948799 4.333350 -2.011049 4.333350 -2.073223 4.333350 -2.135318 4.333350 -2.135318 4.333350 -2.135318 4.333350 -2.135318 4.333350 -2.135318 4.333350 -2.135318 4.333350 -2.135318 4.333350 -2.135318 4.333350 -2.135318 "/>
      <polyline fill="none" stroke="black" stroke-width="1.733340000000000575e-02" points="5.200020 -2.135318 5.200020 -2.135318 5.200020 -2.135318 5.200020 -2.135318 5.200020 -2.135318 5.200020 -2.135318 5.200020 -2.135318 5.200020 -2.135318 5.200020 -2.135318 5.200020 -2.072554 5.200020 -2.009828 5.200020 -1.947101 5.200020 -1.884372 5.200020 -1.821649 5.200020 -1.758958 5.200020 -1.696401 5.200020 -1.638035 5.200020 -1.638035 5.200020 -1.638035 5.200020 -1.638035 5.200020 -1.638035 5.200020 -1.638035 5.200020 -1.638035 5.200020 -1.638035 5.200020 -1.638035 5.200020 -1.638035 5.200020 -1.638035 5.200020 -1.638035 5.200020 -1.638035 5.200020 -1.638035 5.200020 -1.638035 5.200020 -1.638035 5.200020 -1.638035 5.200020 -1.649683 5.200020 -1.664480 5.200020 -1.679934 5.200020 -1.695653 5.200020 -1.727441 5.200020 -1.759401 5.200020 -1.823200 5.200020 -1.886307 5.200020 -1.948799 5.200020 -2.011049 5.200020 -2.073223 5.200020 -2.135318 5.200020 -2.135318 5.200020 -2.135318 5.200020 -2.135318 5.200020 -2.135318 5.200020 -2.135318 5.200020 -2.135318 5.200020 -2.135318 5.200020 -2.135318 "/>
      <polyline fill="none" stroke="black" stroke-width="1.733340000000000575e-02" points="5.200020 -2.135318 5.200020 -2.135318 5.200020 -2.135318 5.200020 -2.135318 5.200020 -2.135318 5.200020 -2.135318 5.200020 -2.135318 5.200020 -2.135318 5.200020 -2.135318 5.200020 -2.072888 5.200020 -2.010439 5.200020 -1.947950 5.200020 -1.885340 5.200020 -1.822425 5.200020 -1.759179 5.200020 -1.696027 5.200020 -1.638035 5.200020 -1.638035 5.200020 -1.638035 5.200020 -1.638035 5.200020 -1.638035 5.200020 -1.638035 5.200020 -1.638035 5.200020 -1.638035 5.200020 -1.638035 5.200020 -1.638035 5.200020 -1.638035 5.200020 -1.638035 5.200020 -1.638035 5.200020 -1.638035 5.200020 -1.638035 5.200020 -1.638035 5.200020 -1.638035 5.200020 -1.696027 5.200020 -1.759179 5.200020 -1.822425 5.200020 -1.885340 5.200020 -1.947950 5.200020 -2.010439 5.200020 -2.072888 5.200020 -2.135318 5.200020 -2.135318 5.200020 -2.135318 5.200020 -2.135318 5.200020 -2.135318 5.200020 -2.135318 5.200020 -2.135318 5.200020 -2.135318 5.200020 -2.135318 "/>
    </g>
  </g>
  <g transform="translate(10.400040, 13.000050)">
    <g>
      <polyline fill="none" stroke="black" stroke-width="1.733340000000000575e-02" points="2.600010 -3.520900 2.600010 -3.520900 2.600010 -3.520900 2.600010 -3.520900 2.600010 -3.520900 2.600010 -3.520900 2.600010 -3.520900 2.600010 -3.520900 2.600010 -3.520900 2.506510 -3.536041 2.413010 -3.551181 2.319510 -3.566322 2.226010 -3.581463 2.132510 -3.596604 2.039010 -3.611744 1.945510 -3.626885 1.852010 -3.642026 1.852010 -3.642026 1.852010 -3.642026 1.852010 -3.642026 1.852010 -3.642026 1.852010 -3.642026 1.852010 -3.642026 1.852010 -3.642026 1.852010 -3.642026 "/>
      <polyline fill="none" stroke="black" stroke-width="1.733340000000000575e-02" points="2.600010 -3.520900 2.600010 -3.520900 2.600010 -3.520900 2.600010 -3.520900 2.600010 -3.520900 2.600010 -3.520900 2.600010 -3.520900 2.600010 -3.520900 2.600010 -3.520900 2.506510 -3.536041 2.413010 -3.551181 2.319510 -3.566322 2.226010 -3.581463 2.132510 -3.596604 2.039010 -3.611744 1.945510 -3.626885 1.852010 -3.642026 1.852010 -3.642026 1.852010 -3.642026 1.852010 -3.642026 1.852010 -3.642026 1.852010 -3.642026 1.852010 -3.642026 1.852010 -3.642026 1.852010 -3.642026 "/>
      <polyline fill="none" stroke="black" stroke-width="1.733340000000000575e-02" points="2.600010 -3.128000 2.600010 -3.128000 2.600010 -3.128000 2.600010 -3.128000 2.600010 -3.128000 2.600010 -3.128000 2.600010 -3.128000 2.600010 -3.128000 2.600010 -3.128000 2.506510 -3.153053 2.413010 -3.178106 2.319510 -3.203160 2.226010 -3.228213 2.132510 -3.253266 2.039010 -3.278319 1.945510 -3.303373 1.852010 -3.328426 1.852010 -3.328426 1.852010 -3.328426 1.852010 -3.328426 1.852010 -3.328426 1.852010 -3.328426 1.852010 -3.328426 1.852010 -3.328426 1.852010 -3.328426 "/>
      <polyline fill="none" stroke="black" stroke-width="1.733340000000000575e-02" points="2.600010 -3.128000 2.600010 -3.128000 2.600010 -3.128000 2.600010 -3.128000 2.600010 -3.128000 2.600010 -3.128000 2.600010 -3.128000 2.600010 -3.128000 2.600010 -3.128000 2.506510 -3.153053 2.413010 -3.178106 2.319510 -3.203160 2.226010 -3.228213 2.132510 -3.253266 2.039010 -3.278319 1.945510 -3.303373 1.852010 -3.328426 1.852010 -3.328426 1.852010 -3.328426 1.852010 -3.328426 1.852010 -3.328426 1.852010 -3.328426 1.852010 -3.328426 1.852010 -3.328426 1.852010 -3.328426 "/>
      <polyline fill="none" stroke="black" stroke-width="1.733340000000000575e-02" points="2.600010 -3.128000 2.600010 -3.128000 2.600010 -3.128000 2.600010 -3.128000 2.600010 -3.128000 2.600010 -3.128000 2.600010 -3.128000 2.600010 -3.128000 2.600010 -3.128000 2.506510 -3.153053 2.413010 -3.178106 2.319510 -3.203160 2.226010 -3.228213 2.132510 -3.253266 2.039010 -3.278319 1.945510 -3.303373 1.852010 -3.328426 1.852010 -3.328426 1.852010 -3.328426 1.852010 -3.328426 1.852010 -3.328426 1.852010 -3.328426 1.852010 -3.328426 1.852010 -3.328426 1.852010 -3.328426 "/>
      <polyline fill="none" stroke="black" stroke-width="1.733340000000000575e-02" points="2.600010 -3.520900 2.600010 -3.520900 2.600010 -3.520900 2.600010 -3.520900 2.600010 -3.520900 2.600010 -3.520900 2.600010 -3.520900 2.600010 -3.520900 2.600010 -3.520900 2.506510 -3.536041 2.413010 -3.551181 2.319510 -3.566322 2.226010 -3.581463 2.132510 -3.596604 2.039010 -3.611744 1.945510 -3.626885 1.852010 -3.642026 1.852010 -3.642026 1.852010 -3.642026 1.852010 -3.642026 1.852010 -3.642026 1.852010 -3.642026 1.852010 -3.642026 1.852010 -3.642026 1.852010 -3.642026 "/>
      <polyline fill="none" stroke="black" stroke-width="1.733340000000000575e-02" points="2.600010 -3.520900 2.600010 -3.520900 2.600010 -3.520900 2.600010 -3.520900 2.600010 -3.520900 2.600010 -3.520900 2.600010 -3.520900 2.600010 -3.520900 2.600010 -3.520900 2.506510 -3.536041 2.413010 -3.551181 2.319510 -3.566322 2.226010 -3.581463 2.132510 -3.596604 2.039010 -3.611744 1.945510 -3.626885 1.852010 -3.642026 1.852010 -3.642026 1.852010 -3.642026 1.852010 -3.642026 1.852010 -3.642026 1.852010 -3.642026 1.852010 -3.642026 1.852010 -3.642026 1.852010 -3.642026 "/>
      <polyline fill="none" stroke="black" stroke-width="1.733340000000000575e-02" points="2.600010 -3.520900 2.600010 -3.520900 2.600010 -3.520900 2.600010 -3.520900 2.600010 -3.520900 2.600010 -3.520900 2.600010 -3.520900 2.600010 -3.520900 2.600010 -3.520900 2.600010 -3.471244 2.600010 -3.421489 2.600010 -3.371643 2.600010 -3.321705 2.600010 -3.271676 2.600010 -3.221599 2.600010 -3.171711 2.600010 -3.128000 2.600010 -3.128000 2.600010 -3.128000 2.600010 -3.128000 2.600010 -3.128000 2.600010 -3.128000 2.600010 -3.128000 2.600010 -3.128000 2.600010 -3.128000 2.600010 -3.128000 2.600010 -3.128000 2.600010 -3.128000 2.600010 -3.128000 2.600010 -3.128000 2.600010 -3.128000 2.600010 -3.128000 2.600010 -3.128000 2.600010 -3.171711 2.600010 -3.221599 2.600010 -3.271676 2.600010 -3.321705 2.600010 -3.371643 2.600010 -3.421489 2.600010 -3.471244 2.600010 -3.520900 2.600010 -3.520900 2.600010 -3.520900 2.600010 -3.520900 2.600010 -3.520900 2.600010 -3.520900 2.600010 -3.520900 2.600010 -3.520900 2.600010 -3.520900 "/>
      <polyline fill="none" stroke="black" stroke-width="1.733340000000000575e-02" points="2.600010 -3.520900 2.600010 -3.520900 2.600010 -3.520900 2.600010 -3.520900 2.600010 -3.520900 2.600010 -3.520900 2.600010 -3.520900 2.600010 -3.520900 2.600010 -3.520900 2.600010 -3.471244 2.600010 -3.421489 2.600010 -3.371643 2.600010 -3.321705 2.600010 -3.271676 2.600010 -3.221599 2.600010 -3.171711 2.600010 -3.128000 2.600010 -3.128000 2.600010 -3.128000 2.600010 -3.128000 2.600010 -3.128000 2.600010 -3.128000 2.600010 -3.128000 2.600010 -3.128000 2.600010 -3.128000 2.600010 -3.128000 2.600010 -3.128000 2.600010 -3.128000 2.600010 -3.128000 2.600010 -3.128000 2.600010 -3.128000 2.600010 -3.128000 2.600010 -3.128000 2.600010 -3.171711 2.600010 -3.221599 2.600010 -3.271676 2.600010 -3.321705 2.600010 -3.371643 2.600010 -3.421489 2.600010 -3.471244 2.600010 -3.520900 2.600010 -3.520900 2.600010 -3.520900 2.600010 -3.520900 2.600010 -3.520900 2.600010 -3.520900 2.600010 -3.520900 2.600010 -3.520900 2.600010 -3.520900 "/>
      <polyline fill="none" stroke="black" stroke-width="1.733340000000000575e-02" points="1.852010 -3.642026 1.852010 -3.642026 1.852010 -3.642026 1.852010 -3.642026 1.852010 -3.642026 1.852010 -3.642026 1.852010 -3.642026 1.852010 -3.642026 1.852010 -3.642026 1.852010 -3.602392 1.852010 -3.562679 1.852010 -3.522894 1.852010 -3.483035 1.852010 -3.443104 1.852010 -3.403134 1.852010 -3.363315 1.852010 -3.328426 1.852010 -3.328426 1.852010 -3.328426 1.852010 -3.328426 1.852010 -3.328426 1.852010 -3.328426 1.852010 -3.328426 1.852010 -3.328426 1.852010 -3.328426 1.852010 -3.328426 1.852010 -3.328426 1.852010 -3.328426 1.852010 -3.328426 1.852010 -3.328426 1.852010 -3.328426 1.852010 -3.328426 1.852010 -3.328426 1.852010 -3.363315 1.852010 -3.403134 1.852010 -3.443104 1.852010 -3.483035 1.852010 -3.522894 1.852010 -3.562679 1.852010 -3.602392 1.852010 -3.642026 1.852010 -3.642026 1.852010 -3.642026 1.852010 -3.642026 1.852010 -3.642026 1.852010 -3.642026 1.852010 -3.642026 1.852010 -3.642026 1.852010 -3.642026 "/>
      <polyline fill="none" stroke="black" stroke-width="1.733340000000000575e-02" points="1.852010 -3.642026 1.852010 -3.642026 1.852010 -3.642026 1.852010 -3.642026 1.852010 -3.642026 1.852010 -3.642026 1.852010 -3.642026 1.852010 -3.642026 1.852010 -3.642026 1.852010 -3.602392 1.852010 -3.562679 1.852010 -3.522894 1.852010 -3.483035 1.852010 -3.443104 1.852010 -3.403134 1.852010 -3.363315 1.852010 -3.328426 1.852010 -3.328426 1.852010 -3.328426 1.852010 -3.328426 1.852010 -3.328426 1.852010 -3.328426 1.852010 -3.328426 1.852010 -3.328426 1.852010 -3.328426 1.852010 -3.328426 1.852010 -3.328426 1.852010 -3.328426 1.852010 -3.328426 1.852010 -3.328426 1.852010 -3.328426 1.852010 -3.328426 1.852010 -3.328426 1.852010 -3.363315 1.852010 -3.403134 1.852010 -3.443104 1.852010 -3.483035 1.852010 -3.522894 1.852010 -3.562679 1.852010 -3.602392 1.852010 -3.642026 1.852010 -3.642026 1.852010 -3.642026 1.852010 -3.642026 1.852010 -3.642026 1.852010 -3.642026 1.852010 -3.642026 1.852010 -3.642026 1.852010 -3.642026 "/>
    </g>
  </g>
  <g transform="translate(10.400040, 13.000050)">
    <g>
      <polyline fill="none" stroke="black" stroke-width="1.733340000000000575e-02" points="2.600010 -3.520900 2.600010 -3.520900 2.600010 -3.520900 2.600010 -3.520900 2.600010 -3.520900 2.600010 -3.520900 2.600010 -3.520900 2.600010 -3.520900 2.600010 -3.520900 2.693510 -3.536041 2.787010 -3.551181 2.880510 -3.566322 2.974010 -3.581463 3.067510 -3.596604 3.161010 -3.611744 3.254510 -3.626885 3.348010 -3.642026 3.348010 -3.642026 3.348010 -3.642026 3.348010 -3.642026 3.348010 -3.642026 3.348010 -3.642026 3.348010 -3.642026 3.348010 -3.642026 3.348010 -3.642026 "/>
      <polyline fill="none" stroke="black" stroke-width="1.733340000000000575e-02" points="2.600010 -3.520900 2.600010 -3.520900 2.600010 -3.520900 2.600010 -3.520900 2.600010 -3.520900 2.600010 -3.520900 2.600010 -3.520900 2.600010 -3.520900 2.600010 -3.520900 2.693510 -3.536041 2.787010 -3.551181 2.880510 -3.566322 2.974010 -3.581463 3.067510 -3.596604 3.161010 -3.611744 3.254510 -3.626885 3.348010 -3.642026 3.348010 -3.642026 3.348010 -3.642026 3.348010 -3.642026 3.348010 -3.642026 3.348010 -3.642026 3.348010 -3.642026 3.348010 -3.642026 3.348010 -3.642026 "/>
      <polyline fill="none" stroke="black" stroke-width="1.733340000000000575e-02" points="2.600010 -3.128000 2.600010 -3.128000 2.600010 -3.128000 2.600010 -3.128000 2.600010 -3.128000 2.600010 -3.128000 2.600010 -3.128000 2.600010 -3.128000 2.600010 -3.128000 2.693510 -3.153053 2.787010 -3.178106 2.880510 -3.203160 2.974010 -3.228213 3.067510 -3.253266 3.161010 -3.278319 3.254510 -3.303373 3.348010 -3.328426 3.348010 -3.328426 3.348010 -3.328426 3.348010 -3.328426 3.348010 -3.328426 3.348010 -3.328426 3.348010 -3.328426 3.348010 -3.328426 3.348010 -3.328426 "/>
      <polyline fill="none" stroke="black" stroke-width="1.733340000000000575e-02" points="2.600010 -3.128000 2.600010 -3.128000 2.600010 -3.128000 2.600010 -3.128000 2.600010 -3.128000 2.600010 -3.128000 2.600010 -3.128000 2.600010 -3.128000 2.600010 -3.128000 2.693510 -3.153053 2.787010 -3.178106 2.880510 -3.203160 2.974010 -3.228213 3.067510 -3.253266 3.161010 -3.278319 3.254510 -3.303373 3.348010 -3.328426 3.348010 -3.328426 3.348010 -3.328426 3.348010 -3.328426 3.348010 -3.328426 3.348010 -3.328426 3.348010 -3.328426 3.348010 -3.328426 3.348010 -3.328426 "/>
      <polyline fill="none" stroke="black" stroke-width="1.733340000000000575e-02" points="2.600010 -3.128000 2.600010 -3.128000 2.600010 -3.128000 2.600010 -3.128000 2.600010 -3.128000 2.600010 -3.128000 2.600010 -3.128000 2.600010 -3.128000 2.600010 -3.128000 2.693510 -3.153053 2.787010 -3.178106 2.880510 -3.203160 2.974010 -3.228213 3.067510 -3.253266 3.161010 -3.278319 3.254510 -3.303373 3.348010 -3.328426 3.348010 -3.328426 3.348010 -3.328426 3.348010 -3.328426 3.348010 -3.328426 3.348010 -3.328426 3.348010 -3.328426 3.348010 -3.328426 3.348010 -3.328426 "/>
      <polyline fill="none" stroke="black" stroke-width="1.733340000000000575e-02" points="2.600010 -3.520900 2.600010 -3.520900 2.600010 -3.520900 2.600010 -3.520900 2.600010 -3.520900 2.600010 -3.520900 2.600010 -3.520900 2.600010 -3.520900 2.600010 -3.520900 2.693510 -3.536041 2.787010 -3.551181 2.880510 -3.566322 2.974010 -3.581463 3.067510 -3.596604 3.161010 -3.611744 3.254510 -3.626885 3.348010 -3.642026 3.348010 -3.642026 3.348010 -3.642026 3.348010 -3.642026 3.348010 -3.642026 3.348010 -3.642026 3.348010 -3.642026 3.348010 -3.642026 3.348010 -3.642026 "/>
      <polyline fill="none" stroke="black" stroke-width="1.733340000000000575e-02" points="2.600010 -3.520900 2.600010 -3.520900 2.600010 -3.520900 2.600010 -3.520900 2.600010 -3.520900 2.600010 -3.520900 2.600010 -3.520900 2.600010 -3.520900 2.600010 -3.520900 2.693510 -3.536041 2.787010 -3.551181 2.880510 -3.566322 2.974010 -3.581463 3.067510 -3.596604 3.161010 -3.611744 3.254510 -3.626885 3.348010 -3.642026 3.348010 -3.642026 3.348010 -3.642026 3.348010 -3.642026 3.348010 -3.642026 3.348010 -3.642026 3.348010 -3.642026 3.348010 -3.642026 3.348010 -3.642026 "/>
      <polyline fill="none" stroke="black" stroke-width="1.733340000000000575e-02" points="2.600010 -3.520900 2.600010 -3.520900 2.600010 -3.520900 2.600010 -3.520900 2.600010 -3.520900 2.600010 -3.520900 2.600010 -3.520900 2.600010 -3.520900 2.600010 -3.520900 2.600010 -3.471244 2.600010 -3.421489 2.600010 -3.371643 2.600010 -3.321705 2.600010 -3.271676 2.600010 -3.221599 2.600010 -3.171711 2.600010 -3.128000 2.600010 -3.128000 2.600010 -3.128000 2.600010 -3.128000 2.600010 -3.128000 2.600010 -3.128000 2.600010 -3.128000 2.600010 -3.128000 2.600010 -3.128000 2.600010 -3.128000 2.600010 -3.128000 2.600010 -3.128000 2.600010 -3.128000 2.600010 -3.128000 2.600010 -3.128000 2.600010 -3.128000 2.600010 -3.128000 2.600010 -3.171711 2.600010 -3.221599 2.600010 -3.271676 2.600010 -3.321705 2.600010 -3.371643 2.600010 -3.421489 2.600010 -3.471244 2.600010 -3.520900 2.600010 -3.520900 2.600010 -3.520900 2.600010 -3.520900 2.600010 -3.520900 2.600010 -3.520900 2.600010 -3.520900 2.600010 -3.520900 2.600010 -3.520900 "/>
      <polyline fill="none" stroke="black" stroke-width="1.733340000000000575e-02" points="2.600010 -3.520900 2.600010 -3.520900 2.600010 -3.520900 2.600010 -3.520900 2.600010 -3.520900 2.600010 -3.520900 2.600010 -3.520900 2.600010 -3.520900 2.600010 -3.520900 2.600010 -3.471244 2.600010 -3.421489 2.600010 -3.371643 2.600010 -3.321705 2.600010 -3.271676 2.600010 -3.221599 2.600010 -3.171711 2.600010 -3.128000 2.600010 -3.128000 2.600010 -3.128000 2.600010 -3.128000 2.600010 -3.128000 2.600010 -3.128000 2.600010 -3.128000 2.600010 -3.128000 2.600010 -3.128000 2.600010 -3.128000 2.600010 -3.128000 2.600010 -3.128000 2.600010 -3.128000 2.600010 -3.128000 2.600010 -3.128000 2.600010 -3.128000 2.600010 -3.128000 2.600010 -3.171711 2.600010 -3.221599 2.600010 -3.271676 2.600010 -3.321705 2.600010 -3.371643 2.600010 -3.421489 2.600010 -3.471244 2.600010 -3.520900 2.600010 -3.520900 2.600010 -3.520900 2.600010 -3.520900 2.600010 -3.520900 2.600010 -3.520900 2.600010 -3.520900 2.600010 -3.520900 2.600010 -3.520900 "/>
      <polyline fill="none" stroke="black" stroke-width="1.733340000000000575e-02" points="3.348010 -3.642026 3.348010 -3.642026 3.348010 -3.642026 3.348010 -3.642026 3.348010 -3.642026 3.348010 -3.642026 3.348010 -3.642026 3.348010 -3.642026 3.348010 -3.642026 3.348010 -3.602392 3.348010 -3.562679 3.348010 -3.522894 3.348010 -3.483035 3.348010 -3.443104 3.348010 -3.403134 3.348010 -3.363315 3.348010 -3.328426 3.348010 -3.328426 3.348010 -3.328426 3.348010 -3.328426 3.348010 -3.328426 3.348010 -3.328426 3.348010 -3.328426 3.348010 -3.328426 3.348010 -3.328426 3.348010 -3.328426 3.348010 -3.328426 3.348010 -3.328426 3.348010 -3.328426 3.348010 -3.328426 3.348010 -3.328426 3.348010 -3.328426 3.348010 -3.328426 3.348010 -3.363315 3.348010 -3.403134 3.348010 -3.443104 3.348010 -3.483035 3.348010 -3.522894 3.348010 -3.562679 3.348010 -3.602392 3.348010 -3.642026 3.348010 -3.642026 3.348010 -3.642026 3.348010 -3.642026 3.348010 -3.642026 3.348010 -3.642026 3.348010 -3.642026 3.348010 -3.642026 3.348010 -3.642026 "/>
      <polyline fill="none" stroke="black" stroke-width="1.733340000000000575e-02" points="3.348010 -3.642026 3.348010 -3.642026 3.348010 -3.642026 3.348010 -3.642026 3.348010 -3.642026 3.348010 -3.642026 3.348010 -3.642026 3.348010 -3.642026 3.348010 -3.642026 3.348010 -3.602392 3.348010 -3.562679 3.348010 -3.522894 3.348010 -3.483035 3.348010 -3.443104 3.348010 -3.403134 3.348010 -3.363315 3.348010 -3.328426 3.348010 -3.328426 3.348010 -3.328426 3.348010 -3.328426 3.348010 -3.328426 3.348010 -3.328426 3.348010 -3.328426 3.348010 -3.328426 3.348010 -3.328426 3.348010 -3.328426 3.348010 -3.328426 3.348010 -3.328426 3.348010 -3.328426 3.348010 -3.328426 3.348010 -3.328426 3.348010 -3.328426 3.348010 -3.328426 3.348010 -3.363315 3.348010 -3.403134 3.348010 -3.443104 3.348010 -3.483035 3.348010 -3.522894 3.348010 -3.562679 3.348010 -3.602392 3.348010 -3.642026 3.348010 -3.642026 3.348010 -3.642026 3.348010 -3.642026 3.348010 -3.642026 3.348010 -3.642026 3.348010 -3.642026 3.348010 -3.642026 3.348010 -3.642026 "/>
    </g>
  </g>
  <g transform="translate(10.400040, 13.000050)">
    <g>
      <polyline fill="none" stroke="black" stroke-width="1.733340000000000575e-02" points="1.852010 -3.642000 1.852010 -3.642000 1.852010 -3.642000 1.852010 -3.642000 1.852010 -3.642000 1.852010 -3.642000 1.852010 -3.642000 1.852010 -3.642000 1.852010 -3.642000 1.852010 -3.641911 1.852010 -3.641822 1.852010 -3.641733 1.852010 -3.641644 1.852010 -3.641556 1.852010 -3.641467 1.852010 -3.641378 1.852010 -3.641289 1.852010 -3.641289 1.852010 -3.641289 1.852010 -3.641289 1.852010 -3.641289 1.852010 -3.641289 1.852010 -3.641289 1.852010 -3.641289 1.852010 -3.641289 "/>
      <polyline fill="none" stroke="black" stroke-width="1.733340000000000575e-02" points="1.852010 -3.642000 1.852010 -3.642000 1.852010 -3.642000 1.852010 -3.642000 1.852010 -3.642000 1.852010 -3.642000 1.852010 -3.642000 1.852010 -3.642000 1.852010 -3.642000 1.852010 -3.641911 1.852010 -3.641822 1.852010 -3.641733 1.852010 -3.641644 1.852010 -3.641556 1.852010 -3.641467 1.852010 -3.641378 1.852010 -3.641289 1.852010 -3.641289 1.852010 -3.641289 1.852010 -3.641289 1.852010 -3.641289 1.852010 -3.641289 1.852010 -3.641289 1.852010 -3.641289 1.852010 -3.641289 "/>
      <polyline fill="none" stroke="black" stroke-width="1.733340000000000575e-02" points="1.852010 -3.328400 1.852010 -3.328400 1.852010 -3.328400 1.852010 -3.328400 1.852010 -3.328400 1.852010 -3.328400 1.852010 -3.328400 1.852010 -3.328400 1.852010 -3.328400 1.852010 -3.348327 1.852010 -3.368255 1.852010 -3.388182 1.852010 -3.408109 1.852010 -3.428037 1.852010 -3.447964 1.852010 -3.467892 1.852010 -3.487819 1.852010 -3.487819 1.852010 -3.487819 1.852010 -3.487819 1.852010 -3.487819 1.852010 -3.487819 1.852010 -3.487819 1.852010 -3.487819 1.852010 -3.487819 "/>
      <polyline fill="none" stroke="black" stroke-width="1.733340000000000575e-02" points="1.852010 -3.328400 1.852010 -3.328400 1.852010 -3.328400 1.852010 -3.328400 1.852010 -3.328400 1.852010 -3.328400 1.852010 -3.328400 1.852010 -3.328400 1.852010 -3.328400 1.852010 -3.348327 1.852010 -3.368255 1.852010 -3.388182 1.852010 -3.408109 1.852010 -3.428037 1.852010 -3.447964 1.852010 -3.467892 1.852010 -3.487819 1.852010 -3.487819 1.852010 -3.487819 1.852010 -3.487819 1.852010 -3.487819 1.852010 -3.487819 1.852010 -3.487819 1.852010 -3.487819 1.852010 -3.487819 "/>
      <polyline fill="none" stroke="black" stroke-width="1.733340000000000575e-02" points="1.852010 -3.328400 1.852010 -3.328400 1.852010 -3.328400 1.852010 -3.328400 1.852010 -3.328400 1.852010 -3.328400 1.852010 -3.328400 1.852010 -3.328400 1.852010 -3.328400 1.852010 -3.348327 1.852010 -3.368255 1.852010 -3.388182 1.852010 -3.408109 1.852010 -3.428037 1.852010 -3.447964 1.852010 -3.467892 1.852010 -3.487819 1.852010 -3.487819 1.852010 -3.487819 1.852010 -3.487819 1.852010 -3.487819 1.852010 -3.487819 1.852010 -3.487819 1.852010 -3.487819 1.852010 -3.487819 "/>
      <polyline fill="none" stroke="black" stroke-width="1.733340000000000575e-02" points="1.852010 -3.642000 1.852010 -3.642000 1.852010 -3.642000 1.852010 -3.642000 1.852010 -3.642000 1.852010 -3.642000 1.852010 -3.642000 1.852010 -3.642000 1.852010 -3.642000 1.852010 -3.641911 1.852010 -3.641822 1.852010 -3.641733 1.852010 -3.641644 1.852010 -3.641556 1.852010 -3.641467 1.852010 -3.641378 1.852010 -3.641289 1.852010 -3.641289 1.852010 -3.641289 1.852010 -3.641289 1.852010 -3.641289 1.852010 -3.641289 1.852010 -3.641289 1.852010 -3.641289 1.852010 -3.641289 "/>
      <polyline fill="none" stroke="black" stroke-width="1.733340000000000575e-02" points="1.852010 -3.642000 1.852010 -3.642000 1.852010 -3.642000 1.852010 -3.642000 1.852010 -3.642000 1.852010 -3.642000 1.852010 -3.642000 1.852010 -3.642000 1.852010 -3.642000 1.852010 -3.641911 1.852010 -3.641822 1.852010 -3.641733 1.852010 -3.641644 1.852010 -3.641556 1.852010 -3.641467 1.852010 -3.641378 1.852010 -3.641289 1.852010 -3.641289 1.852010 -3.641289 1.852010 -3.641289 1.852010 -3.641289 1.852010 -3.641289 1.852010 -3.641289 1.852010 -3.641289 1.852010 -3.641289 "/>
      <polyline fill="none" stroke="black" stroke-width="1.733340000000000575e-02" points="1.852010 -3.642000 1.852010 -3.642000 1.852010 -3.642000 1.852010 -3.642000 1.852010 -3.642000 1.852010 -3.642000 1.852010 -3.642000 1.852010 -3.642000 1.852010 -3.642000 1.852010 -3.602464 1.852010 -3.562872 1.852010 -3.523230 1.852010 -3.483538 1.852010 -3.443796 1.852010 -3.404026 1.852010 -3.364353 1.852010 -3.328400 1.852010 -3.328400 1.852010 -3.328400 1.852010 -3.328400 1.852010 -3.328400 1.852010 -3.328400 1.852010 -3.328400 1.852010 -3.328400 1.852010 -3.328400 1.852010 -3.328400 1.852010 -3.328400 1.852010 -3.328400 1.852010 -3.328400 1.852010 -3.328400 1.852010 -3.328400 1.852010 -3.328400 1.852010 -3.328400 1.852010 -3.364353 1.852010 -3.404026 1.852010 -3.443796 1.852010 -3.483538 1.852010 -3.523230 1.852010 -3.562872 1.852010 -3.602464 1.852010 -3.642000 1.852010 -3.642000 1.852010 -3.642000 1.852010 -3.642000 1.852010 -3.642000 1.852010 -3.642000 1.852010 -3.642000 1.852010 -3.642000 1.852010 -3.642000 "/>
      <polyline fill="none" stroke="black" stroke-width="1.733340000000000575e-02" points="1.852010 -3.642000 1.852010 -3.642000 1.852010 -3.642000 1.852010 -3.642000 1.852010 -3.642000 1.852010 -3.642000 1.852010 -3.642000 1.852010 -3.642000 1.852010 -3.642000 1.847676 -3.602464 1.843880 -3.562872 1.840650 -3.523230 1.838121 -3.483538 1.836579 -3.443796 1.836549 -3.404026 1.839174 -3.364353 1.852010 -3.328400 1.852010 -3.328400 1.852010 -3.328400 1.852010 -3.328400 1.852010 -3.328400 1.852010 -3.328400 1.852010 -3.328400 1.852010 -3.328400 1.852010 -3.328400 1.852010 -3.328400 1.852010 -3.328400 1.852010 -3.328400 1.852010 -3.328400 1.852010 -3.328400 1.852010 -3.328400 1.852010 -3.328400 1.852010 -3.328400 1.864846 -3.364353 1.867471 -3.404026 1.867441 -3.443796 1.865899 -3.483538 1.863370 -3.523230 1.860140 -3.562872 1.856344 -3.602464 1.852010 -3.642000 1.852010 -3.642000 1.852010 -3.642000 1.852010 -3.642000 1.852010 -3.642000 1.852010 -3.642000 1.852010 -3.642000 1.852010 -3.642000 1.852010 -3.642000 "/>
      <polyline fill="none" stroke="black" stroke-width="1.733340000000000575e-02" points="1.852010 -3.641289 1.852010 -3.641289 1.852010 -3.641289 1.852010 -3.641289 1.852010 -3.641289 1.852010 -3.641289 1.852010 -3.641289 1.852010 -3.641289 1.852010 -3.641289 1.849889 -3.621941 1.848032 -3.602565 1.846450 -3.583165 1.845213 -3.563741 1.844458 -3.544291 1.844444 -3.524829 1.845728 -3.505414 1.852010 -3.487819 1.852010 -3.487819 1.852010 -3.487819 1.852010 -3.487819 1.852010 -3.487819 1.852010 -3.487819 1.852010 -3.487819 1.852010 -3.487819 1.852010 -3.487819 1.852010 -3.487819 1.852010 -3.487819 1.852010 -3.487819 1.852010 -3.487819 1.852010 -3.487819 1.852010 -3.487819 1.852010 -3.487819 1.852010 -3.487819 1.858292 -3.505414 1.859576 -3.524829 1.859562 -3.544291 1.858807 -3.563741 1.857570 -3.583165 1.855988 -3.602565 1.854131 -3.621941 1.852010 -3.641289 1.852010 -3.641289 1.852010 -3.641289 1.852010 -3.641289 1.852010 -3.641289 1.852010 -3.641289 1.852010 -3.641289 1.852010 -3.641289 1.852010 -3.641289 "/>
      <polyline fill="none" stroke="black" stroke-width="1.733340000000000575e-02" points="1.852010 -3.641289 1.852010 -3.641289 1.852010 -3.641289 1.852010 -3.641289 1.852010 -3.641289 1.852010 -3.641289 1.852010 -3.641289 1.852010 -3.641289 1.852010 -3.641289 1.852010 -3.621941 1.852010 -3.602565 1.852010 -3.583165 1.852010 -3.563741 1.852010 -3.544291 1.852010 -3.524829 1.852010 -3.505414 1.852010 -3.487819 1.852010 -3.487819 1.852010 -3.487819 1.852010 -3.487819 1.852010 -3.487819 1.852010 -3.487819 1.852010 -3.487819 1.852010 -3.487819 1.852010 -3.487819 1.852010 -3.487819 1.852010 -3.487819 1.852010 -3.487819 1.852010 -3.487819 1.852010 -3.487819 1.852010 -3.487819 1.852010 -3.487819 1.852010 -3.487819 1.852010 -3.505414 1.852010 -3.524829 1.852010 -3.544291 1.852010 -3.563741 1.852010 -3.583165 1.852010 -3.602565 1.852010 -3.621941 1.852010 -3.641289 1.852010 -3.641289 1.852010 -3.641289 1.852010 -3.641289 1.852010 -3.641289 1.852010 -3.641289 1.852010 -3.641289 1.852010 -3.641289 1.852010 -3.641289 "/>
    </g>
  </g>
  <g transform="translate(10.400040, 13.000050)">
    <g>
      <polyline fill="none" stroke="black" stroke-width="1.733340000000000575e-02" points="3.348010 -3.642000 3.348010 -3.642000 3.348010 -3.642000 3.348010 -3.642000 3.348010 -3.642000 3.348010 -3.642000 3.348010 -3.642000 3.348010 -3.642000 3.348010 -3.642000 3.348010 -3.641911 3.348010 -3.641822 3.348010 -3.641733 3.348010 -3.641644 3.348010 -3.641556 3.348010 -3.641467 3.348010 -3.641378 3.348010 -3.641289 3.348010 -3.641289 3.348010 -3.641289 3.348010 -3.641289 3.348010 -3.641289 3.348010 -3.641289 3.348010 -3.641289 3.348010 -3.641289 3.348010 -3.641289 "/>
      <polyline fill="none" stroke="black" stroke-width="1.733340000000000575e-02" points="3.348010 -3.642000 3.348010 -3.642000 3.348010 -3.642000 3.348010 -3.642000 3.348010 -3.642000 3.348010 -3.642000 3.348010 -3.642000 3.348010 -3.642000 3.348010 -3.642000 3.348010 -3.641911 3.348010 -3.641822 3.348010 -3.641733 3.348010 -3.641644 3.348010 -3.641556 3.348010 -3.641467 3.348010 -3.641378 3.348010 -3.641289 3.348010 -3.641289 3.348010 -3.641289 3.348010 -3.641289 3.348010 -3.641289 3.348010 -3.641289 3.348010 -3.641289 3.348010 -3.641289 3.348010 -3.641289 "/>
      <polyline fill="none" stroke="black" stroke-width="1.733340000000000575e-02" points="3.348010 -3.328400 3.348010 -3.328400 3.348010 -3.328400 3.348010 -3.328400 3.348010 -3.328400 3.348010 -3.328400 3.348010 -3.328400 3.348010 -3.328400 3.348010 -3.328400 3.348010 -3.348327 3.348010 -3.368255 3.348010 -3.388182 3.348010 -3.408109 3.348010 -3.428037 3.348010 -3.447964 3.348010 -3.467892 3.348010 -3.487819 3.348010 -3.487819 3.348010 -3.487819 3.348010 -3.487819 3.348010 -3.487819 3.348010 -3.487819 3.348010 -3.487819 3.348010 -3.487819 3.348010 -3.487819 "/>
      <polyline fill="none" stroke="black" stroke-width="1.733340000000000575e-02" points="3.348010 -3.328400 3.348010 -3.328400 3.348010 -3.328400 3.348010 -3.328400 3.348010 -3.328400 3.348010 -3.328400 3.348010 -3.328400 3.348010 -3.328400 3.348010 -3.328400 3.348010 -3.348327 3.348010 -3.368255 3.348010 -3.388182 3.348010 -3.408109 3.348010 -3.428037 3.348010 -3.447964 3.348010 -3.467892 3.348010 -3.487819 3.348010 -3.487819 3.348010 -3.487819 3.348010 -3.487819 3.348010 -3.487819 3.348010 -3.487819 3.348010 -3.487819 3.348010 -3.487819 3.348010 -3.487819 "/>
      <polyline fill="none" stroke="black" stroke-width="1.733340000000000575e-02" points="3.348010 -3.328400 3.348010 -3.328400 3.348010 -3.328400 3.348010 -3.328400 3.348010 -3.328400 3.348010 -3.328400 3.348010 -3.328400 3.348010 -3.328400 3.348010 -3.328400 3.348010 -3.348327 3.348010 -3.368255 3.348010 -3.388182 3.348010 -3.408109 3.348010 -3.428037 3.348010 -3.447964 3.348010 -3.467892 3.348010 -3.487819 3.348010 -3.487819 3.348010 -3.487819 3.348010 -3.487819 3.348010 -3.487819 3.348010 -3.487819 3.348010 -3.487819 3.348010 -3.487819 3.348010 -3.487819 "/>
      <polyline fill="none" stroke="black" stroke-width="1.733340000000000575e-02" points="3.348010 -3.642000 3.348010 -3.642000 3.348010 -3.642000 3.348010 -3.642000 3.348010 -3.642000 3.348010 -3.642000 3.348010 -3.642000 3.348010 -3.642000 3.348010 -3.642000 3.348010 -3.641911 3.348010 -3.641822 3.348010 -3.641733 3.348010 -3.641644 3.348010 -3.641556 3.348010 -3.641467 3.348010 -3.641378 3.348010 -3.641289 3.348010 -3.641289 3.348010 -3.641289 3.348010 -3.641289 3.348010 -3.641289 3.348010 -3.641289 3.348010 -3.641289 3.348010 -3.641289 3.348010 -3.641289 "/>
      <polyline fill="none" stroke="black" stroke-width="1.733340000000000575e-02" points="3.348010 -3.642000 3.348010 -3.642000 3.348010 -3.642000 3.348010 -3.642000 3.348010 -3.642000 3.348010 -3.642000 3.348010 -3.642000 3.348010 -3.642000 3.348010 -3.642000 3.348010 -3.641911 3.348010 -3.641822 3.348010 -3.641733 3.348010 -3.641644 3.348010 -3.641556 3.348010 -3.641467 3.348010 -3.641378 3.348010 -3.641289 3.348010 -3.641289 3.348010 -3.641289 3.348010 -3.641289 3.348010 -3.641289 3.348010 -3.641289 3.348010 -3.641289 3.348010 -3.641289 3.348010 -3.641289 "/>
      <polyline fill="none" stroke="black" stroke-width="1.733340000000000575e-02" points="3.348010 -3.642000 3.348010 -3.642000 3.348010 -3.642000 3.348010 -3.642000 3.348010 -3.642000 3.348010 -3.642000 3.348010 -3.642000 3.348010 -3.642000 3.348010 -3.642000 3.348010 -3.602464 3.348010 -3.562872 3.348010 -3.523230 3.348010 -3.483538 3.348010 -3.443796 3.348010 -3.404026 3.348010 -3.364353 3.348010 -3.328400 3.348010 -3.328400 3.348010 -3.328400 3.348010 -3.328400 3.348010 -3.328400 3.348010 -3.328400 3.348010 -3.328400 3.348010 -3.328400 3.348010 -3.328400 3.348010 -3.328400 3.348010 -3.328400 3.348010 -3.328400 3.348010 -3.328400 3.348010 -3.328400 3.348010 -3.328400 3.348010 -3.328400 3.348010 -3.328400 3.348010 -3.364353 3.348010 -3.404026 3.348010 -3.443796 3.348010 -3.483538 3.348010 -3.523230 3.348010 -3.562872 3.348010 -3.602464 3.348010 -3.642000 3.348010 -3.642000 3.348010 -3.642000 3.348010 -3.642000 3.348010 -3.642000 3.348010 -3.642000 3.348010 -3.642000 3.348010 -3.642000 3.348010 -3.642000 "/>
      <polyline fill="none" stroke="black" stroke-width="1.733340000000000575e-02" points="3.348010 -3.642000 3.348010 -3.642000 3.348010 -3.642000 3.348010 -3.642000 3.348010 -3.642000 3.348010 -3.642000 3.348010 -3.642000 3.348010 -3.642000 3.348010 -3.642000 3.352344 -3.602464 3.356140 -3.562872 3.359370 -3.523230 3.361899 -3.483538 3.363441 -3.443796 3.363471 -3.404026 3.360846 -3.364353 3.348010 -3.328400 3.348010 -3.328400 3.348010 -3.328400 3.348010 -3.328400 3.348010 -3.328400 3.348010 -3.328400 3.348010 -3.328400 3.348010 -3.328400 3.348010 -3.328400 3.348010 -3.328400 3.348010 -3.328400 3.348010 -3.328400 3.348010 -3.328400 3.348010 -3.328400 3.348010 -3.328400 3.348010 -3.328400 3.348010 -3.328400 3.335174 -3.364353 3.332549 -3.404026 3.332579 -3.443796 3.334121 -3.483538 3.336650 -3.523230 3.339880 -3.562872 3.343676 -3.602464 3.348010 -3.642000 3.348010 -3.642000 3.348010 -3.642000 3.348010 -3.642000 3.348010 -3.642000 3.348010 -3.642000 3.348010 -3.642000 3.348010 -3.642000 3.348010 -3.642000 "/>
      <polyline fill="none" stroke="black" stroke-width="1.733340000000000575e-02" points="3.348010 -3.641289 3.348010 -3.641289 3.348010 -3.641289 3.348010 -3.641289 3.348010 -3.641289 3.348010 -3.641289 3.348010 -3.641289 3.348010 -3.641289 3.348010 -3.641289 3.350131 -3.621941 3.351988 -3.602565 3.353570 -3.583165 3.354807 -3.563741 3.355562 -3.544291 3.355576 -3.524829 3.354292 -3.505414 3.348010 -3.487819 3.348010 -3.487819 3.348010 -3.487819 3.348010 -3.487819 3.348010 -3.487819 3.348010 -3.487819 3.348010 -3.487819 3.348010 -3.487819 3.348010 -3.487819 3.348010 -3.487819 3.348010 -3.487819 3.348010 -3.487819 3.348010 -3.487819 3.348010 -3.487819 3.348010 -3.487819 3.348010 -3.487819 3.348010 -3.487819 3.341728 -3.505414 3.340444 -3.524829 3.340458 -3.544291 3.341213 -3.563741 3.342450 -3.583165 3.344032 -3.602565 3.345889 -3.621941 3.348010 -3.641289 3.348010 -3.641289 3.348010 -3.641289 3.348010 -3.641289 3.348010 -3.641289 3.348010 -3.641289 3.348010 -3.641289 3.348010 -3.641289 3.348010 -3.641289 "/>
      <polyline fill="none" stroke="black" stroke-width="1.733340000000000575e-02" points="3.348010 -3.641289 3.348010 -3.641289 3.348010 -3.641289 3.348010 -3.641289 3.348010 -3.641289 3.348010 -3.641289 3.348010 -3.641289 3.348010 -3.641289 3.348010 -3.641289 3.348010 -3.621941 3.348010 -3.602565 3.348010 -3.583165 3.348010 -3.563741 3.348010 -3.544291 3.348010 -3.524829 3.348010 -3.505414 3.348010 -3.487819 3.348010 -3.487819 3.348010 -3.487819 3.348010 -3.487819 3.348010 -3.487819 3.348010 -3.487819 3.348010 -3.487819 3.348010 -3.487819 3.348010 -3.487819 3.348010 -3.487819 3.348010 -3.487819 3.348010 -3.487819 3.348010 -3.487819 3.348010 -3.487819 3.348010 -3.487819 3.348010 -3.487819 3.348010 -3.487819 3.348010 -3.505414 3.348010 -3.524829 3.348010 -3.544291 3.348010 -3.563741 3.348010 -3.583165 3.348010 -3.602565 3.348010 -3.621941 3.348010 -3.641289 3.348010 -3.641289 3.348010 -3.641289 3.348010 -3.641289 3.348010 -3.641289 3.348010 -3.641289 3.348010 -3.641289 3.348010 -3.641289 3.348010 -3.641289 "/>
    </g>
  </g>
  <g transform="translate(10.400040, 13.000050)">
    <g>
      <polyline fill="none" stroke="black" stroke-width="1.733340000000000575e-02" points="2.600010 -0.000000 2.574580 -0.005922 2.550791 -0.022764 2.528643 -0.049142 2.508135 -0.083672 2.472041 -0.171650 2.442510 -0.275625 2.419541 -0.384521 2.403135 -0.487266 2.393291 -0.572783 2.390010 -0.630000 2.390010 -0.723379 2.390010 -0.906719 2.390010 -1.152949 2.390010 -1.435000 2.390010 -1.725801 2.390010 -1.998281 2.390010 -2.225371 2.390010 -2.380000 2.398009 -2.517218 2.419124 -2.697535 2.449028 -2.902076 2.483396 -3.111961 2.517904 -3.308314 2.548226 -3.472256 2.570036 -3.584911 2.579010 -3.627400 2.580007 -3.628794 2.580945 -3.630622 2.582087 -3.632692 2.583694 -3.634814 2.586027 -3.636796 2.589350 -3.638449 2.593924 -3.639580 2.600010 -3.640000 "/>
      <polyline fill="none" stroke="black" stroke-width="1.733340000000000575e-02" points="2.600010 -0.000000 2.600010 -0.001509 2.600010 -0.005922 2.600010 -0.013064 2.600010 -0.022764 2.600010 -0.049142 2.600010 -0.083672 2.600010 -0.171650 2.600010 -0.275625 2.600010 -0.384521 2.600010 -0.487266 2.600010 -0.572783 2.600010 -0.630000 2.600010 -0.723379 2.600010 -0.906719 2.600010 -1.152949 2.600010 -1.435000 2.600010 -1.725801 2.600010 -1.998281 2.600010 -2.225371 2.600010 -2.380000 2.600010 -2.517218 2.600010 -2.697535 2.600010 -2.902076 2.600010 -3.111961 2.600010 -3.308314 2.600010 -3.472256 2.600010 -3.584911 2.600010 -3.627400 2.600010 -3.628794 2.600010 -3.630622 2.600010 -3.632692 2.600010 -3.634814 2.600010 -3.636796 2.600010 -3.638449 2.600010 -3.639580 2.600010 -3.640000 "/>
      <polyline fill="none" stroke="black" stroke-width="1.733340000000000575e-02" points="2.600010 -0.000000 2.625440 -0.005922 2.649229 -0.022764 2.671377 -0.049142 2.691885 -0.083672 2.727979 -0.171650 2.757510 -0.275625 2.780479 -0.384521 2.796885 -0.487266 2.806729 -0.572783 2.810010 -0.630000 2.810010 -0.723379 2.810010 -0.906719 2.810010 -1.152949 2.810010 -1.435000 2.810010 -1.725801 2.810010 -1.998281 2.810010 -2.225371 2.810010 -2.380000 2.802011 -2.517218 2.780896 -2.697535 2.750992 -2.902076 2.716624 -3.111961 2.682116 -3.308314 2.651794 -3.472256 2.629984 -3.584911 2.621010 -3.627400 2.620013 -3.628794 2.619075 -3.630622 2.617933 -3.632692 2.616326 -3.634814 2.613993 -3.636796 2.610670 -3.638449 2.606096 -3.639580 2.600010 -3.640000 "/>
      <polyline fill="none" stroke="black" stroke-width="1.733340000000000575e-02" points="2.600010 -0.000000 2.600010 -0.005922 2.600010 -0.022764 2.600010 -0.049142 2.600010 -0.083672 2.600010 -0.171650 2.600010 -0.275625 2.600010 -0.384521 2.600010 -0.487266 2.600010 -0.572783 2.600010 -0.630000 2.600010 -0.723379 2.600010 -0.906719 2.600010 -1.152949 2.600010 -1.435000 2.600010 -1.725801 2.600010 -1.998281 2.600010 -2.225371 2.600010 -2.380000 2.600010 -2.517218 2.600010 -2.697535 2.600010 -2.902076 2.600010 -3.111961 2.600010 -3.308314 2.600010 -3.472256 2.600010 -3.584911 2.600010 -3.627400 2.600010 -3.628794 2.600010 -3.630622 2.600010 -3.632692 2.600010 -3.634814 2.600010 -3.636796 2.600010 -3.638449 2.600010 -3.639580 2.600010 -3.640000 "/>
      <polyline fill="none" stroke="black" stroke-width="1.733340000000000575e-02" points="2.600010 -0.000000 2.574580 -0.005922 2.550791 -0.022764 2.528643 -0.049142 2.508135 -0.083672 2.472041 -0.171650 2.442510 -0.275625 2.419541 -0.384521 2.403135 -0.487266 2.393291 -0.572783 2.390010 -0.630000 2.390010 -0.723379 2.390010 -0.906719 2.390010 -1.152949 2.390010 -1.435000 2.390010 -1.725801 2.390010 -1.998281 2.390010 -2.225371 2.390010 -2.380000 2.398009 -2.517218 2.419124 -2.697535 2.449028 -2.902076 2.483396 -3.111961 2.517904 -3.308314 2.548226 -3.472256 2.570036 -3.584911 2.579010 -3.627400 2.580007 -3.628794 2.580945 -3.630622 2.582087 -3.632692 2.583694 -3.634814 2.586027 -3.636796 2.589350 -3.638449 2.593924 -3.639580 2.600010 -3.640000 "/>
      <polyline fill="none" stroke="black" stroke-width="1.733340000000000575e-02" points="2.600010 -0.000000 2.600010 -0.000000 2.600010 -0.000000 2.600010 -0.000000 2.600010 -0.000000 2.600010 -0.000000 2.600010 -0.000000 2.600010 -0.000000 2.600010 -0.000000 2.600010 -0.000000 2.600010 -0.000000 2.600010 -0.000000 2.600010 -0.000000 2.600010 -0.000000 2.600010 -0.000000 2.600010 -0.000000 2.600010 -0.000000 2.600010 -0.000000 2.600010 -0.000000 2.600010 -0.000000 2.600010 -0.000000 2.600010 -0.000000 2.600010 -0.000000 2.600010 -0.000000 2.600010 -0.000000 2.600010 -0.000000 2.600010 -0.000000 2.600010 -0.000000 2.600010 -0.000000 2.600010 -0.000000 2.600010 -0.000000 2.600010 -0.000000 2.600010 -0.000000 2.600010 -0.000000 2.600010 -0.000000 2.600010 -0.000000 2.600010 -0.000000 2.600010 -0.000000 2.600010 -0.000000 2.600010 -0.000000 2.600010 -0.000000 2.600010 -0.000000 2.600010 -0.000000 2.600010 -0.000000 2.600010 -0.000000 2.600010 -0.000000 2.600010 -0.000000 2.600010 -0.000000 2.600010 -0.000000 2.600010 -0.000000 2.600010 -0.000000 2.600010 -0.000000 2.600010 -0.000000 2.600010 -0.000000 2.600010 -0.000000 2.600010 -0.000000 2.600010 -0.000000 2.600010 -0.000000 2.600010 -0.000000 2.600010 -0.000000 2.600010 -0.000000 2.600010 -0.000000 2.600010 -0.000000 2.600010 -0.000000 2.600010 -0.000000 2.600010 -0.000000 2.600010 -0.000000 2.600010 -0.000000 2.600010 -0.000000 2.600010 -0.000000 2.600010 -0.000000 2.600010 -0.000000 2.600010 -0.000000 2.600010 -0.000000 2.600010 -0.000000 2.600010 -0.000000 2.600010 -0.000000 2.600010 -0.000000 2.600010 -0.000000 2.600010 -0.000000 2.600010 -0.000000 2.600010 -0.000000 2.600010 -0.000000 2.600010 -0.000000 2.600010 -0.000000 2.600010 -0.000000 2.600010 -0.000000 2.600010 -0.000000 2.600010 -0.000000 2.600010 -0.000000 2.600010 -0.000000 "/>
      <polyline fill="none" stroke="black" stroke-width="1.733340000000000575e-02" points="2.390010 -2.380000 2.394280 -2.380000 2.406524 -2.380000 2.425895 -2.380000 2.451547 -2.380000 2.482631 -2.380000 2.518301 -2.380000 2.557710 -2.380000 2.600010 -2.380000 2.642310 -2.380000 2.681719 -2.380000 2.717389 -2.380000 2.748473 -2.380000 2.774125 -2.380000 2.793496 -2.380000 2.805740 -2.380000 2.810010 -2.380000 2.805740 -2.380000 2.793496 -2.380000 2.774125 -2.380000 2.748473 -2.380000 2.717389 -2.380000 2.681719 -2.380000 2.642310 -2.380000 2.600010 -2.380000 2.557710 -2.380000 2.518301 -2.380000 2.482631 -2.380000 2.451547 -2.380000 2.425895 -2.380000 2.406524 -2.380000 2.394280 -2.380000 2.390010 -2.380000 "/>
      <polyline fill="none" stroke="black" stroke-width="1.733340000000000575e-02" points="2.600010 -3.640000 2.600010 -3.640000 2.600010 -3.640000 2.600010 -3.640000 2.600010 -3.640000 2.600010 -3.640000 2.600010 -3.640000 2.600010 -3.640000 2.600010 -3.640000 2.600010 -3.640000 2.600010 -3.640000 2.600010 -3.640000 2.600010 -3.640000 2.600010 -3.640000 2.600010 -3.640000 2.600010 -3.640000 2.600010 -3.640000 2.600010 -3.640000 2.600010 -3.640000 2.600010 -3.640000 2.600010 -3.640000 2.600010 -3.640000 2.600010 -3.640000 2.600010 -3.640000 2.600010 -3.640000 2.600010 -3.640000 2.600010 -3.640000 2.600010 -3.640000 2.600010 -3.640000 2.600010 -3.640000 2.600010 -3.640000 2.600010 -3.640000 2.600010 -3.640000 "/>
    </g>
  </g>
  <g transform="translate(10.400040, 19.500075)">
    <rect x="0" y="0" width="0.000000000000000000e+00" fill="black" height="0.000000000000000000e+00" fill-opacity="1" stroke-width="0.000000000000000000e+00" stroke="black" stroke-miterlimit="4" stroke-dasharray="none"/>
    <rect x="0.000000000000000000e+00" y="0" width="0.000000000000000000e+00" fill="white" height="0.000000000000000000e+00" fill-opacity="1" stroke-width="0.000000000000000000e+00" stroke="black" stroke-miterlimit="4" stroke-dasharray="none"/>
    <rect x="0" y="0.000000000000000000e+00" width="0.000000000000000000e+00" fill="white" height="0.000000000000000000e+00" fill-opacity="1" stroke-width="0.000000000000000000e+00" stroke="black" stroke-miterlimit="4" stroke-dasharray="none"/>
    <rect x="0.000000000000000000e+00" y="0.000000000000000000e+00" width="0.000000000000000000e+00" fill="black" height="0.000000000000000000e+00" fill-opacity="1" stroke-width="0.000000000000000000e+00" stroke="black" stroke-miterlimit="4" stroke-dasharray="none"/>
    <rect x="0.000000000000000000e+00" y="0" width="0.000000000000000000e+00" fill="white" height="0.000000000000000000e+00" fill-opacity="1" stroke-width="0.000000000000000000e+00" stroke="black" stroke-miterlimit="4" stroke-dasharray="none"/>
    <rect x="0.000000000000000000e+00" y="0.000000000000000000e+00" width="0.000000000000000000e+00" fill="black" height="0.000000000000000000e+00" fill-opacity="1" stroke-width="0.000000000000000000e+00" stroke="black" stroke-miterlimit="4" stroke-dasharray="none"/>
    <text x="-0.000000000000000000e+00" y="-0.000000000000000000e+00" font-family="sans-serif" font-size="0.000000px" fill="black">0</text>
    <text x="0.000000000000000000e+00" y="-0.000000000000000000e+00" font-family="sans-serif" font-size="0.000000px" fill="black">(ft)</text>
    <text x="0.000000000000000000e+00" y="-0.000000000000000000e+00" font-family="sans-serif" font-size="0.000000px" fill="black">0.0e+00</text>
  </g>
</svg>
